PathFileType  4	(X/Y/Z) C:\Users\antoi\Documents\MyRepositories\mobilecap\ResultsAnalysis
DataRate	CameraRate	NumFrames	NumMarkers	Units	OrigDataRate	OrigDataStartFrame	OrigNumFrames
100.0	100.0	4	51	mm	100.0	129	256
Frame#	Time	r_knee			r_shank_antsup			r_ankle			r_calc			r_5meta			r_toe			L_knee			L_shank_antsup			L_ankle			L_calc			L_5meta			L_toe			r_sh2			r_sh3			r_sh4			L_sh2			L_sh3			r_thigh1			r_thigh2			r_thigh3			r_thigh4			r_thigh5			L_thigh1			L_thigh2			L_thigh3			L_thigh4			r.ASIS			r.PSIS			L.ASIS			L.PSIS			C7			R_Shoulder			L_Shoulder			R_Sternum			L_Sternum			R_humerus			R_elbow_med			R_elbow_lat			R_forearm			R_wrist_radius			R_wrist_ulna			L_humerus			L_elbow_med			L_elbow_lat			L_forearm			L_wrist_radius			L_wrist_ulna			R_HJC			L_HJC			R_HJC_reg			L_HJC_reg			
		X1	Y1	Z1	X2	Y2	Z2	X3	Y3	Z3	X4	Y4	Z4	X5	Y5	Z5	X6	Y6	Z6	X7	Y7	Z7	X8	Y8	Z8	X9	Y9	Z9	X10	Y10	Z10	X11	Y11	Z11	X12	Y12	Z12	X13	Y13	Z13	X14	Y14	Z14	X15	Y15	Z15	X16	Y16	Z16	X17	Y17	Z17	X18	Y18	Z18	X19	Y19	Z19	X20	Y20	Z20	X21	Y21	Z21	X22	Y22	Z22	X23	Y23	Z23	X24	Y24	Z24	X25	Y25	Z25	X26	Y26	Z26	X27	Y27	Z27	X28	Y28	Z28	X29	Y29	Z29	X30	Y30	Z30	X31	Y31	Z31	X32	Y32	Z32	X33	Y33	Z33	X34	Y34	Z34	X35	Y35	Z35	X36	Y36	Z36	X37	Y37	Z37	X38	Y38	Z38	X39	Y39	Z39	X40	Y40	Z40	X41	Y41	Z41	X42	Y42	Z42	X43	Y43	Z43	X44	Y44	Z44	X45	Y45	Z45	X46	Y46	Z46	X47	Y47	Z47	X48	Y48	Z48	X49	Y49	Z49	X50	Y50	Z50	X51	Y51	Z51	

129	1.28000000	-37.11462	549.83521	-271.68770	-102.63244	435.82608	-242.94132	-287.77076	141.66231	-305.87425	-351.26884	132.08962	-371.11414	-184.35942	45.24376	-272.44255	-138.73918	61.40303	-322.47933	-7.93719	528.72789	-795.50297	-23.68369	336.30162	-798.98212	-249.66570	129.33521	-831.94492	-317.16605	89.96639	-770.69959	-136.28139	42.46870	-890.10023	-85.88668	64.95563	-833.22814	-167.93669	344.40888	-250.48744	-42.29148	405.28579	-275.05096	-104.75403	311.74784	-293.23017	-76.92432	385.01678	-850.23244	-148.31338	289.67703	-845.48849	-288.68500	691.73382	-314.84469	-180.54595	664.31573	-288.87939	-176.58331	595.95275	-278.51222	-310.60282	577.99784	-337.79001	-198.64064	550.79196	-305.39930	-285.79797	612.04982	-788.17462	-157.06128	565.13614	-813.12603	-237.54530	707.34285	-761.84250	-111.62131	657.18688	-777.00832	-324.58469	742.34688	-412.52955	-478.96709	835.70695	-520.97397	-312.13160	738.18112	-689.76835	-470.74909	836.76662	-609.88818	-53.83214	1124.31510	-566.70595	3.63992	1038.55314	-413.52280	-41.57658	1064.48700	-726.78310	-5.87490	966.78236	-544.73908	-11.37197	963.64519	-597.60954	-22.89895	882.58865	-218.13779	-122.63467	791.48485	-133.27694	-73.58566	856.02828	-97.46352	89.25897	773.33161	-209.30955	151.40413	740.45912	-263.36550	158.80885	725.94841	-229.47173	-32.37974	876.41165	-912.16978	-116.58234	782.32035	-963.32560	-66.49114	838.84570	-1006.66598	95.41185	827.21755	-882.00927	139.71415	824.96665	-827.51084	156.08873	810.48942	-854.29105	-429.08577	681.07176	-460.12637	-420.44978	682.53877	-657.40788	-420.35400	683.60908	-461.93144	-403.49666	685.78369	-644.32480	
130	1.29000000	-34.23484	549.58526	-270.92359	-100.15897	436.35235	-242.70864	-286.58401	143.33252	-306.58843	-349.78911	134.17310	-372.29845	-184.31936	45.71286	-272.77607	-138.30898	61.42163	-322.66167	-3.01050	526.10923	-794.39214	-20.32770	334.62214	-798.07874	-248.86004	130.12802	-831.22600	-316.42443	90.85113	-770.15088	-136.25574	42.66900	-889.83021	-85.67992	64.91457	-833.08998	-165.72762	345.30485	-250.91024	-39.72469	405.36520	-274.52314	-102.51423	312.27718	-292.97077	-73.35150	384.15638	-849.24420	-145.83450	289.45302	-844.60201	-288.55191	685.80921	-314.84476	-179.76952	660.60682	-289.27529	-174.51296	592.37039	-278.60651	-308.30257	571.44479	-337.76565	-195.72472	546.22295	-305.79435	-282.64709	603.75255	-788.34855	-152.92122	559.51955	-812.73262	-236.31516	699.95368	-761.53235	-108.99640	652.21501	-775.81158	-321.17355	732.91542	-413.09682	-475.30978	825.22030	-523.37068	-307.86016	727.04636	-690.32541	-466.81121	825.68297	-612.09691	-44.90894	1105.83694	-568.24189	10.31844	1019.28906	-414.42834	-32.31727	1044.89498	-727.82808	0.12799	947.24424	-545.97252	-4.42426	943.96777	-598.28563	-12.06701	863.95850	-219.74146	-108.97183	771.88705	-132.99403	-60.10788	836.97583	-98.01911	102.44648	755.20206	-211.13296	164.51405	722.70705	-265.42051	172.18167	708.01458	-231.68015	-19.22454	857.47107	-912.12849	-101.61850	762.60407	-964.56624	-50.80230	819.06628	-1006.76489	108.95403	807.39647	-879.37586	152.52234	805.29554	-824.25965	169.28520	790.61217	-850.86030	-425.47278	671.16991	-460.93983	-415.96041	671.24889	-658.18781	-416.69437	673.71598	-462.42616	-399.22308	674.66413	-644.81112	
131	1.30000000	-31.34829	548.77604	-270.44152	-97.83328	436.25600	-242.73252	-285.82888	144.34059	-307.34773	-348.76741	135.64387	-373.15595	-184.40723	45.86603	-273.13658	-138.06870	61.41786	-322.80386	1.86045	524.01016	-793.70308	-16.91980	333.09088	-796.86573	-247.96294	131.19592	-830.48111	-315.46194	92.24867	-769.80702	-136.21253	42.86372	-889.59403	-85.42043	64.92467	-833.06163	-163.88369	345.88234	-251.34265	-37.41496	404.88975	-274.13132	-100.69649	312.27277	-292.90771	-69.78936	383.54118	-848.36277	-143.15829	289.44860	-843.93914	-287.73611	680.67706	-315.27481	-178.49269	657.33569	-289.97393	-171.99024	589.19446	-278.33889	-305.95553	565.55947	-337.32334	-192.85509	542.20149	-305.62897	-279.30817	596.30846	-788.72988	-148.62264	554.72192	-812.60351	-234.69392	693.07451	-761.00900	-106.01712	647.96844	-774.17509	-317.50825	724.18051	-413.90395	-471.80993	815.08793	-525.66619	-302.99064	716.79788	-691.04833	-462.99009	815.03840	-614.08826	-36.59310	1088.28876	-569.58134	16.85317	1000.85696	-415.50030	-24.01114	1025.96659	-728.51314	5.85839	928.76782	-547.24887	1.80034	925.52154	-598.99007	-1.65816	846.26587	-221.50796	-96.92754	752.80737	-133.46008	-47.60948	818.98863	-98.76257	114.92785	738.45599	-213.06245	177.06250	706.40737	-267.39329	184.95716	691.54130	-233.70117	-6.33483	839.40175	-911.72358	-87.07708	743.61970	-965.21045	-35.61649	800.10536	-1006.44129	122.02082	788.65736	-876.59078	164.89721	786.85599	-820.84561	182.06717	771.98996	-847.13550	-421.35521	661.64016	-461.90227	-410.95004	660.59161	-659.10251	-412.52826	664.27598	-463.24024	-394.34146	664.17341	-645.56515	
132	1.31000000	-28.42076	547.11980	-270.25643	-95.63631	435.35553	-242.99263	-285.59831	144.63668	-307.93514	-348.36121	136.15734	-373.64903	-184.55999	45.78432	-273.35414	-138.12010	61.35039	-322.89258	6.56566	521.96509	-793.60840	-14.07706	331.20935	-795.75391	-247.21078	132.11227	-829.79292	-314.67524	93.61552	-769.48360	-136.20277	42.91730	-889.57468	-85.28938	64.83787	-833.14709	-162.47759	345.61929	-251.53562	-35.34661	403.59932	-273.90123	-99.35812	311.49664	-292.76706	-66.50099	382.87748	-847.69920	-140.69120	289.41862	-843.47973	-286.38651	676.02524	-316.78218	-176.90634	654.09180	-291.27577	-169.70179	586.17961	-278.13620	-303.71443	560.34639	-336.66299	-190.34414	538.67456	-304.73603	-275.92525	589.18587	-789.20564	-144.48475	550.10070	-813.12561	-232.81202	686.38765	-760.60164	-103.28097	643.90079	-773.13719	-314.29289	716.26248	-415.01394	-468.36714	805.54282	-527.84767	-298.31173	706.95288	-691.84296	-459.24303	804.92852	-616.15341	-28.87181	1071.83135	-570.83747	23.34810	983.60986	-416.67763	-15.97167	1008.46204	-729.30571	11.29472	911.29189	-548.26061	7.11404	908.31544	-599.92204	8.32418	829.62382	-223.37218	-86.16027	734.45560	-134.62976	-36.06992	801.94670	-99.66248	126.68589	723.05499	-214.95037	189.03532	691.49309	-269.26861	197.02081	676.52081	-235.58322	6.22451	822.18718	-911.15809	-72.97144	725.49671	-965.40490	-20.85855	782.15224	-1006.02521	134.73036	771.11932	-873.65279	176.85857	769.57474	-817.26428	194.44280	754.62715	-843.02893	-417.48591	652.80377	-462.85768	-406.20340	650.45713	-659.99768	-408.58865	655.56801	-464.21971	-389.77026	654.30262	-646.36170	
